<svg width="16" height="16" viewBox="0 0 16 16" xmlns="http://www.w3.org/2000/svg">
  <defs>
    <linearGradient id="androidGradient" x1="0%" y1="0%" x2="100%" y2="100%">
      <stop offset="0%" style="stop-color:#4CAF50;stop-opacity:1" />
      <stop offset="100%" style="stop-color:#2E7D32;stop-opacity:1" />
    </linearGradient>
  </defs>
  
  <!-- Android robot body -->
  <rect x="4" y="6" width="8" height="6" rx="1" fill="url(#androidGradient)"/>
  
  <!-- Android robot head -->
  <rect x="5" y="3" width="6" height="4" rx="2" fill="url(#androidGradient)"/>
  
  <!-- Eyes -->
  <circle cx="6.5" cy="4.5" r="0.5" fill="white"/>
  <circle cx="9.5" cy="4.5" r="0.5" fill="white"/>
  
  <!-- Antennae -->
  <line x1="6" y1="3" x2="5.5" y2="2" stroke="url(#androidGradient)" stroke-width="0.8" stroke-linecap="round"/>
  <line x1="10" y1="3" x2="10.5" y2="2" stroke="url(#androidGradient)" stroke-width="0.8" stroke-linecap="round"/>
  
  <!-- Arms -->
  <rect x="2.5" y="7" width="1" height="3" rx="0.5" fill="url(#androidGradient)"/>
  <rect x="12.5" y="7" width="1" height="3" rx="0.5" fill="url(#androidGradient)"/>
  
  <!-- Legs -->
  <rect x="5.5" y="12" width="1" height="2.5" rx="0.5" fill="url(#androidGradient)"/>
  <rect x="9.5" y="12" width="1" height="2.5" rx="0.5" fill="url(#androidGradient)"/>
  
  <!-- Activity indicator (small screen) -->
  <rect x="6" y="8" width="4" height="2.5" rx="0.3" fill="white" opacity="0.8"/>
  <rect x="6.5" y="8.5" width="3" height="0.3" fill="#4CAF50"/>
  <rect x="6.5" y="9.2" width="2" height="0.3" fill="#4CAF50"/>
  <rect x="6.5" y="9.9" width="2.5" height="0.3" fill="#4CAF50"/>
</svg>